<svg version="1.1" id="Layer_1" xmlns="http://www.w3.org/2000/svg" xmlns:xlink="http://www.w3.org/1999/xlink" x="0px" y="0px"
	 width="100%" viewBox="0 0 266 219" enable-background="new 0 0 266 219" xml:space="preserve">
<path fill="#14253C" opacity="1.000000" stroke="none" 
	d="
M184.000000,220.000000 
	C122.698036,220.000000 61.896069,220.000000 1.047052,220.000000 
	C1.047052,147.069031 1.047052,74.138031 1.047052,1.103515 
	C89.551834,1.103515 178.103821,1.103515 266.827911,1.103515 
	C266.827911,73.999664 266.827911,146.999802 266.827911,220.000000 
	C239.471573,220.000000 211.985794,220.000000 184.000000,220.000000 
M243.760559,172.056198 
	C242.897324,171.339661 242.034088,170.623108 241.184967,169.818283 
	C241.184967,169.818283 241.096512,169.805298 240.690094,169.280243 
	C226.281418,158.969467 210.804214,160.344406 194.338943,165.115692 
	C192.888794,165.711868 191.438660,166.308029 189.262756,166.927063 
	C187.849350,167.228027 186.435959,167.528992 185.023560,166.936569 
	C185.018433,163.626999 185.013321,160.317444 185.625580,156.603790 
	C190.422394,155.036667 195.219223,153.469528 200.570633,151.916626 
	C201.106598,151.790100 201.642563,151.663559 202.997253,151.615982 
	C204.336166,151.346451 205.675079,151.076920 207.940384,150.862915 
	C212.289993,150.860733 216.639618,150.858536 221.490448,151.207306 
	C228.664719,154.241150 235.839005,157.275009 243.519867,160.523087 
	C241.102997,157.863480 238.828644,155.360687 236.184021,152.263153 
	C227.250320,143.494339 216.524033,138.853394 204.012238,138.645950 
	C185.616196,138.340927 169.034119,144.806854 152.133606,152.825409 
	C144.754974,156.560593 137.376358,160.295776 129.281982,164.150650 
	C120.190697,167.774384 111.099411,171.398117 101.365112,175.017731 
	C100.574913,175.332642 99.784706,175.647568 98.186127,175.939117 
	C96.854790,176.129333 95.523453,176.319550 93.779755,175.884262 
	C92.517929,173.571243 91.256111,171.258209 90.646194,168.692032 
	C94.477951,168.158997 95.900070,166.117538 94.794853,162.314117 
	C94.392548,160.929657 94.313278,159.451340 94.126007,157.121017 
	C94.023766,154.734222 93.921516,152.347443 93.895927,149.050751 
	C93.825684,145.680679 93.755447,142.310593 93.789322,138.029602 
	C93.725075,134.338837 93.660820,130.648071 93.777260,126.327431 
	C93.835594,125.895241 93.893929,125.463043 94.394730,124.484291 
	C96.307831,123.640228 98.220932,122.796165 100.620186,122.401314 
	C102.802910,125.255180 104.985626,128.109039 107.418633,131.568680 
	C108.984879,133.707626 110.551132,135.846558 112.367371,138.566467 
	C113.473541,140.097610 114.579712,141.628754 115.992538,143.767349 
	C117.628601,145.902710 119.264664,148.038055 121.141487,150.800186 
	C122.819954,153.394241 123.984901,156.831985 128.298935,154.517502 
	C134.885590,150.983765 141.600464,147.681305 148.087158,143.976471 
	C149.171265,143.357285 150.306656,140.662567 149.832855,139.838806 
	C147.125702,135.131958 143.938904,130.700989 140.555878,125.608742 
	C139.538239,124.004242 138.520599,122.399734 137.197525,120.159447 
	C135.193451,117.408623 133.189362,114.657799 130.942978,111.271416 
	C129.673080,109.435913 128.403168,107.600403 126.896553,105.136490 
	C124.835655,102.304314 122.774765,99.472137 120.438736,96.021957 
	C119.121765,94.280220 117.804794,92.538483 116.178261,90.167023 
	C113.115608,86.470200 110.052948,82.773376 106.693085,78.472633 
	C102.900879,75.268951 99.108681,72.065277 94.822380,68.354675 
	C92.583946,67.138847 90.345512,65.923027 87.603989,64.215553 
	C84.058250,63.174072 80.512505,62.132591 76.202080,60.788429 
	C67.911240,59.421600 59.709602,59.627640 51.107773,61.739544 
	C54.086975,63.763786 56.491882,65.397820 59.103634,67.754387 
	C60.699116,73.854492 62.294594,79.954590 63.794018,86.944366 
	C64.002335,89.622246 64.210648,92.300133 64.306343,95.818138 
	C64.550980,98.877068 64.795616,101.935997 64.942932,105.879440 
	C65.008507,108.249008 65.074089,110.618584 65.011345,113.814369 
	C65.056870,115.204407 65.102402,116.594452 65.018929,118.834869 
	C65.057205,120.551826 65.095474,122.268791 65.040291,124.882530 
	C65.104431,127.580437 65.168579,130.278351 65.084023,133.867599 
	C65.122864,136.569229 65.161705,139.270844 65.055168,142.855820 
	C64.999329,145.239868 64.943497,147.623901 64.626289,150.708069 
	C64.496353,152.461487 64.366409,154.214905 64.005333,156.726883 
	C63.693840,158.817612 63.382339,160.908356 62.779942,163.641708 
	C62.131325,166.259933 59.554047,169.543213 64.520401,170.579437 
	C61.014004,172.044052 57.507603,173.508682 53.281696,174.914169 
	C50.442482,173.523270 47.603268,172.132355 44.764057,170.741455 
	C56.784222,185.722763 72.917908,189.762451 91.810921,188.725739 
	C94.825417,188.307083 97.839905,187.888428 101.679199,187.548172 
	C106.457802,186.626266 111.236404,185.704361 116.748062,184.716125 
	C119.160347,184.130539 121.572639,183.544937 124.281807,183.580780 
	C126.579704,185.508789 128.877594,187.436798 131.047012,189.664413 
	C131.047012,189.664413 130.891174,189.950760 130.100952,190.020981 
	C121.518265,191.877090 112.935577,193.733185 104.352898,195.589279 
	C104.355103,195.835022 104.357307,196.080780 104.359512,196.326523 
	C105.582916,196.516693 106.806313,196.706863 108.680115,197.304825 
	C114.780006,197.854324 120.879906,198.403809 127.912376,199.052643 
	C144.819260,198.928619 161.431122,197.146164 177.865524,190.193039 
	C178.584412,190.045853 179.303314,189.898666 180.390717,190.397736 
	C184.586212,193.952087 194.198898,194.101547 197.382401,191.307205 
	C195.221970,189.141388 193.044998,186.958984 191.366180,184.402603 
	C192.583603,183.616653 193.801025,182.830688 195.721008,181.876587 
	C199.821518,179.941620 203.922012,178.006638 208.781693,175.962616 
	C213.538483,174.562637 218.295258,173.162659 223.943481,171.835495 
	C229.307999,172.506485 234.672516,173.177475 240.616791,174.252823 
	C241.680344,174.754532 242.743896,175.256241 244.172638,176.192627 
	C245.393036,177.010773 246.613449,177.828903 247.833847,178.647034 
	C248.119781,178.260742 248.405716,177.874466 248.691666,177.488190 
	C247.162552,175.836700 245.633453,174.185226 243.760559,172.056198 
M186.504898,89.152374 
	C186.571350,88.090530 186.637802,87.028687 186.892654,85.354813 
	C186.975967,83.922218 187.059265,82.489624 187.437317,80.365028 
	C188.881119,74.714752 189.180389,68.579025 194.895233,64.203972 
	C196.495743,63.592590 198.096252,62.981213 199.696762,62.369831 
	C199.628052,61.911095 199.559341,61.452354 199.490616,60.993618 
	C191.327179,60.993618 183.163757,60.993618 174.155411,60.817711 
	C172.436050,60.869724 170.716690,60.921734 168.075867,60.789368 
	C158.091431,60.789368 148.106995,60.789368 138.122559,60.789368 
	C137.933594,61.520016 137.744629,62.250660 137.555664,62.981308 
	C144.463150,63.276997 147.843979,67.483147 150.049271,73.718079 
	C150.400513,75.139351 150.751755,76.560631 151.039154,78.838821 
	C151.384689,81.890793 151.730240,84.942764 151.977600,88.824364 
	C152.072418,90.208084 152.167252,91.591805 152.204849,93.722534 
	C152.252609,94.468491 152.300354,95.214455 152.214157,96.834557 
	C152.352921,98.885124 152.491684,100.935699 152.495026,103.723488 
	C152.593384,104.461159 152.691742,105.198830 152.636581,106.654602 
	C152.721909,108.108162 152.807220,109.561722 152.789703,111.762741 
	C152.834473,112.514458 152.879242,113.266174 152.816635,114.843872 
	C152.869278,116.227615 152.921921,117.611351 152.885254,119.826614 
	C152.917023,121.218536 152.948792,122.610451 152.894180,124.898117 
	C152.937973,127.591408 152.981766,130.284698 152.967819,133.828140 
	C153.021118,141.164062 153.570068,141.348053 160.327499,138.862213 
	C167.032623,136.395630 173.885925,134.262314 180.797562,132.454178 
	C184.572647,131.466599 186.350967,129.765244 185.752792,125.070602 
	C185.700531,124.018456 185.648270,122.966309 185.702698,121.069862 
	C185.664886,119.372017 185.627090,117.674179 185.670288,115.257576 
	C185.403458,113.835083 185.136642,112.412582 184.963882,110.191040 
	C184.935593,109.121452 184.907318,108.051857 184.989685,106.130035 
	C184.967621,104.414536 184.945557,102.699043 185.032074,100.188896 
	C184.997604,99.123283 184.963135,98.057671 185.153046,96.297935 
	C185.512619,94.167686 185.872192,92.037445 186.504898,89.152374 
z"/>
<path fill="#59BCB4" opacity="1.000000" stroke="none" 
	d="
M202.178528,151.537033 
	C201.642563,151.663559 201.106598,151.790100 200.084503,151.691559 
	C196.781662,151.369507 193.964935,151.272522 190.860504,150.962341 
	C187.176117,147.435654 183.217117,146.552673 178.703827,147.964157 
	C174.615158,149.242844 170.564117,150.686203 166.408585,151.694748 
	C161.983093,152.768814 157.630188,155.950806 152.862320,152.689667 
	C169.034119,144.806854 185.616196,138.340927 204.012238,138.645950 
	C216.524033,138.853394 227.250320,143.494339 235.967392,152.519897 
	C233.913040,152.131851 232.112717,151.116760 230.229080,150.926544 
	C227.177887,150.618378 224.072021,150.851669 220.989227,150.856354 
	C216.639618,150.858536 212.289993,150.860733 207.268738,150.604187 
	C205.124252,150.742645 203.651382,151.139832 202.178528,151.537033 
z"/>
<path fill="#54B2A4" opacity="1.000000" stroke="none" 
	d="
M65.040245,104.994926 
	C64.795616,101.935997 64.550980,98.877068 64.716797,95.327896 
	C75.208405,92.171883 85.393753,89.838402 95.333435,86.721489 
	C101.772934,84.702171 102.127907,82.015648 97.557083,77.088120 
	C95.340820,74.698883 93.086067,72.418022 95.316475,68.861595 
	C99.108681,72.065277 102.900879,75.268951 106.774902,79.107758 
	C105.392395,83.052162 105.902672,86.110558 107.864395,89.263870 
	C105.867340,91.173187 104.290909,93.524078 102.156425,94.263054 
	C92.947540,97.451187 83.595024,100.233810 74.250748,103.016098 
	C71.250191,103.909523 68.114250,104.348198 65.040245,104.994926 
z"/>
<path fill="#52AFAA" opacity="1.000000" stroke="none" 
	d="
M152.497955,152.757538 
	C157.630188,155.950806 161.983093,152.768814 166.408585,151.694748 
	C170.564117,150.686203 174.615158,149.242844 178.703827,147.964157 
	C183.217117,146.552673 187.176117,147.435654 190.554611,151.155777 
	C188.331451,152.294785 186.108017,152.976364 183.924606,153.768250 
	C173.617645,157.506348 163.321640,161.274628 152.659836,165.117889 
	C145.870239,167.544861 139.442520,169.886124 133.078979,171.874649 
	C132.094681,169.024948 131.046204,166.527954 129.997726,164.030975 
	C137.376358,160.295776 144.754974,156.560593 152.497955,152.757538 
z"/>
<path fill="#162C44" opacity="1.000000" stroke="none" 
	d="
M131.175491,189.364822 
	C128.877594,187.436798 126.579704,185.508789 124.437546,183.078705 
	C136.011429,177.958572 147.429581,173.340530 159.115784,168.830780 
	C160.556519,168.199234 161.729218,167.459427 163.084106,166.529816 
	C163.662155,165.996338 164.058029,165.652649 164.785522,165.225006 
	C167.294479,164.351410 169.471817,163.561783 171.944458,162.983917 
	C174.820282,165.412323 177.400803,167.628952 179.684189,170.048477 
	C171.931702,173.603165 164.476349,176.954971 156.684494,180.354523 
	C154.243530,181.311966 152.139038,182.221619 149.670853,183.186493 
	C143.263260,185.282745 137.219376,187.323792 131.175491,189.364822 
z"/>
<path fill="#58BAAE" opacity="1.000000" stroke="none" 
	d="
M95.069427,68.608139 
	C93.086067,72.418022 95.340820,74.698883 97.557083,77.088120 
	C102.127907,82.015648 101.772934,84.702171 95.333435,86.721489 
	C85.393753,89.838402 75.208405,92.171883 64.773102,94.907837 
	C64.210648,92.300133 64.002335,89.622246 64.041977,86.210060 
	C67.251091,83.978828 70.081284,81.608238 73.196808,81.141266 
	C84.654556,79.423882 88.100822,75.943810 88.107079,64.707199 
	C90.345512,65.923027 92.583946,67.138847 95.069427,68.608139 
z"/>
<path fill="#5BBFB5" opacity="1.000000" stroke="none" 
	d="
M87.855530,64.461380 
	C88.100822,75.943810 84.654556,79.423882 73.196808,81.141266 
	C70.081284,81.608238 67.251091,83.978828 64.090012,85.765228 
	C62.294594,79.954590 60.699116,73.854492 59.345078,67.270508 
	C65.379936,64.888130 71.173355,62.989620 76.966766,61.091110 
	C80.512505,62.132591 84.058250,63.174072 87.855530,64.461380 
z"/>
<path fill="#4FAAA5" opacity="1.000000" stroke="none" 
	d="
M152.075775,87.994736 
	C151.730240,84.942764 151.384689,81.890793 151.469833,78.380981 
	C157.931778,76.276131 163.963043,74.629112 170.335541,72.885300 
	C174.328278,70.860832 177.855865,68.625786 181.665421,67.090263 
	C185.625000,65.494278 189.345825,62.069603 194.191086,64.441620 
	C189.180389,68.579025 188.881119,74.714752 186.868317,80.645874 
	C180.979691,81.215057 174.596100,79.758667 170.590317,82.201485 
	C164.611542,85.847450 158.490646,86.888878 152.075775,87.994736 
z"/>
<path fill="#56B097" opacity="1.000000" stroke="none" 
	d="
M90.967216,188.648468 
	C72.917908,189.762451 56.784222,185.722763 44.764057,170.741455 
	C47.603268,172.132355 50.442482,173.523270 53.885353,175.237244 
	C67.641678,179.293564 80.871994,179.779221 94.192116,176.509766 
	C95.523453,176.319550 96.854790,176.129333 98.592590,176.373657 
	C99.453323,181.296555 97.771446,184.499802 93.529594,186.363358 
	C92.533150,186.801117 91.813957,187.869965 90.967216,188.648468 
z"/>
<path fill="#50AAA2" opacity="1.000000" stroke="none" 
	d="
M157.020981,180.306763 
	C164.476349,176.954971 171.931702,173.603165 180.024673,170.010849 
	C182.115707,169.123535 183.569122,168.476746 185.022552,167.829956 
	C186.435959,167.528992 187.849350,167.228027 189.712769,167.253357 
	C192.107651,170.090088 194.052505,172.600540 195.764465,175.300201 
	C194.680054,176.027603 193.828552,176.565811 192.637421,177.180634 
	C189.843185,178.425308 187.388611,179.593384 184.572861,180.859146 
	C180.802719,182.274384 177.393738,183.591934 173.635376,185.011810 
	C171.862686,185.417526 170.439392,185.720901 168.770386,185.760376 
	C166.280106,184.666428 163.990891,183.937698 161.805573,182.973480 
	C160.142303,182.239609 158.610992,181.206665 157.020981,180.306763 
z"/>
<path fill="#52AD9E" opacity="1.000000" stroke="none" 
	d="
M64.991592,105.437180 
	C68.114250,104.348198 71.250191,103.909523 74.250748,103.016098 
	C83.595024,100.233810 92.947540,97.451187 102.156425,94.263054 
	C104.290909,93.524078 105.867340,91.173187 108.105003,89.476761 
	C109.676353,90.922104 110.843254,92.454712 111.941010,94.338516 
	C108.657883,101.699028 101.670830,102.416428 95.502007,104.291359 
	C85.430527,107.352463 75.265335,110.105278 65.139671,112.988159 
	C65.074089,110.618584 65.008507,108.249008 64.991592,105.437180 
z"/>
<path fill="#4FA799" opacity="1.000000" stroke="none" 
	d="
M65.075508,113.401260 
	C75.265335,110.105278 85.430527,107.352463 95.502007,104.291359 
	C101.670830,102.416428 108.657883,101.699028 112.202271,94.336197 
	C112.706917,93.980705 112.881157,93.978722 113.233902,94.250580 
	C114.904472,96.379814 116.396545,98.235222 117.864136,100.312874 
	C117.839661,100.535110 117.800224,100.980537 117.448593,101.044952 
	C112.788795,102.758423 108.340950,104.123611 104.219353,106.151787 
	C101.246086,107.614883 98.706955,109.960243 95.740257,111.943054 
	C95.506325,111.973999 95.037926,112.031715 94.683594,111.909683 
	C92.395111,111.816498 90.375549,111.492096 88.541626,111.935516 
	C80.713837,113.828209 72.940887,115.947731 65.147926,117.984497 
	C65.102402,116.594452 65.056870,115.204407 65.075508,113.401260 
z"/>
<path fill="#205262" opacity="1.000000" stroke="none" 
	d="
M140.915009,126.176323 
	C143.938904,130.700989 147.125702,135.131958 149.832855,139.838806 
	C150.306656,140.662567 149.171265,143.357285 148.087158,143.976471 
	C141.600464,147.681305 134.885590,150.983765 128.298935,154.517502 
	C123.984901,156.831985 122.819954,153.394241 121.281845,150.248352 
	C126.927895,146.480743 132.372375,143.153366 137.960861,140.088577 
	C141.661224,138.059265 142.329865,135.898071 138.925293,132.672546 
	C138.514725,131.586914 138.230484,130.791977 138.200104,129.810211 
	C139.274323,128.474380 140.094666,127.325348 140.915009,126.176323 
z"/>
<path fill="#132A3E" opacity="1.000000" stroke="none" 
	d="
M93.985931,176.197021 
	C80.871994,179.779221 67.641678,179.293564 54.245110,175.266815 
	C57.507603,173.508682 61.014004,172.044052 65.186043,170.311096 
	C67.566071,170.025467 69.280449,170.008194 71.431427,170.045715 
	C73.918907,170.085953 75.969788,170.071442 78.450150,170.053284 
	C82.584511,169.681503 86.289406,169.313354 89.994293,168.945190 
	C91.256111,171.258209 92.517929,173.571243 93.985931,176.197021 
z"/>
<path fill="#27606E" opacity="1.000000" stroke="none" 
	d="
M169.016113,186.024292 
	C170.439392,185.720901 171.862686,185.417526 173.751221,185.335861 
	C175.191467,187.136932 176.166473,188.716293 177.141479,190.295654 
	C161.431122,197.146164 144.819260,198.928619 127.531090,198.682922 
	C127.456352,197.261063 127.762909,196.208923 128.499329,195.141571 
	C130.652359,194.976685 132.375519,194.827042 134.486145,194.636383 
	C143.627151,192.580521 152.380692,190.565674 161.506897,188.453140 
	C164.258408,187.578415 166.637253,186.801361 169.016113,186.024292 
z"/>
<path fill="#3D8A93" opacity="1.000000" stroke="none" 
	d="
M158.847733,168.722488 
	C147.429581,173.340530 136.011429,177.958572 124.289101,182.767990 
	C121.572639,183.544937 119.160347,184.130539 116.380447,184.361572 
	C115.996124,182.723907 115.979408,181.440796 116.275558,179.976440 
	C122.063881,177.272583 127.539345,174.749969 133.014816,172.227356 
	C139.442520,169.886124 145.870239,167.544861 152.984543,165.239426 
	C157.265396,165.286469 160.859650,165.297714 164.453903,165.308960 
	C164.058029,165.652649 163.662155,165.996338 162.764694,166.600677 
	C161.124634,167.481705 159.986191,168.102097 158.847733,168.722488 
z"/>
<path fill="#54B2A4" opacity="1.000000" stroke="none" 
	d="
M133.078979,171.874634 
	C127.539345,174.749969 122.063881,177.272583 115.934509,180.076691 
	C113.179665,181.029022 111.078728,181.699875 108.789047,182.071960 
	C106.402908,179.522751 104.205513,177.272293 102.008125,175.021835 
	C111.099411,171.398117 120.190697,167.774384 129.639862,164.090820 
	C131.046204,166.527954 132.094681,169.024948 133.078979,171.874634 
z"/>
<path fill="#59BCB4" opacity="1.000000" stroke="none" 
	d="
M150.057373,72.983818 
	C147.843979,67.483147 144.463150,63.276997 137.555664,62.981308 
	C137.744629,62.250660 137.933594,61.520016 138.122559,60.789368 
	C148.106995,60.789368 158.091431,60.789368 168.449127,61.255527 
	C168.044998,65.711830 167.379333,69.717972 162.268906,70.579727 
	C158.179535,71.269302 154.126526,72.174377 150.057373,72.983818 
z"/>
<path fill="#1C4B5C" opacity="1.000000" stroke="none" 
	d="
M185.654938,125.852943 
	C186.350967,129.765244 184.572647,131.466599 180.797562,132.454178 
	C173.885925,134.262314 167.032623,136.395630 160.327499,138.862213 
	C153.570068,141.348053 153.021118,141.164062 153.376038,133.348083 
	C164.407806,130.529678 175.031372,128.191315 185.654938,125.852943 
z"/>
<path fill="#56B6A9" opacity="1.000000" stroke="none" 
	d="
M195.017517,165.103989 
	C210.804214,160.344406 226.281418,158.969467 240.451126,169.626801 
	C234.409561,169.393814 228.606964,168.814255 222.422241,168.278870 
	C219.695633,168.539291 217.351120,168.755554 214.806091,168.673828 
	C210.636032,164.514404 206.064590,166.116592 201.601761,166.988647 
	C199.047241,167.487808 196.338486,168.800476 195.017517,165.103989 
z"/>
<path fill="#2C6975" opacity="1.000000" stroke="none" 
	d="
M152.980560,124.002373 
	C152.948792,122.610451 152.917023,121.218536 153.394653,119.410675 
	C164.465805,117.988602 175.027542,116.982468 185.589294,115.976334 
	C185.627090,117.674179 185.664886,119.372017 185.246429,121.512115 
	C174.186951,122.637032 163.583771,123.319702 152.980560,124.002373 
z"/>
<path fill="#439292" opacity="1.000000" stroke="none" 
	d="
M161.134232,188.550812 
	C152.380692,190.565674 143.627151,192.580521 134.399780,194.332047 
	C132.914368,192.696075 131.902771,191.323410 130.891174,189.950760 
	C130.891174,189.950760 131.047012,189.664413 131.111252,189.514618 
	C137.219376,187.323792 143.263260,185.282745 149.917175,183.438812 
	C152.208115,184.139252 153.981369,184.448883 155.546539,185.194992 
	C157.498734,186.125580 159.279465,187.415863 161.134232,188.550812 
z"/>
<path fill="#377D86" opacity="1.000000" stroke="none" 
	d="
M184.923492,100.983543 
	C184.945557,102.699043 184.967621,104.414536 184.478180,106.558136 
	C179.358231,107.292175 174.210114,106.404640 170.269058,108.186623 
	C164.504044,110.793312 158.835648,111.051147 152.892532,111.015282 
	C152.807220,109.561722 152.721909,108.108162 153.115204,106.306366 
	C157.184021,105.607521 161.335678,106.286949 164.250839,104.697929 
	C170.896118,101.075653 177.812180,100.937477 184.923492,100.983543 
z"/>
<path fill="#4BA4A1" opacity="1.000000" stroke="none" 
	d="
M152.026688,88.409546 
	C158.490646,86.888878 164.611542,85.847450 170.590317,82.201485 
	C174.596100,79.758667 180.979691,81.215057 186.720947,80.991882 
	C187.059265,82.489624 186.975967,83.922218 186.430466,85.607750 
	C184.003296,85.800598 181.993317,85.447754 180.082748,85.741562 
	C176.140533,86.347786 172.184357,87.070511 168.364792,88.191315 
	C165.962723,88.896179 163.903519,90.775627 161.500336,91.468979 
	C158.523788,92.327759 155.350418,92.504272 152.262085,92.975525 
	C152.167252,91.591805 152.072418,90.208084 152.026688,88.409546 
z"/>
<path fill="#265E6C" opacity="1.000000" stroke="none" 
	d="
M152.937378,124.450241 
	C163.583771,123.319702 174.186951,122.637032 185.193085,121.934265 
	C185.648270,122.966309 185.700531,124.018456 185.703857,125.461777 
	C175.031372,128.191315 164.407806,130.529678 153.404907,132.923019 
	C152.981766,130.284698 152.937973,127.591408 152.937378,124.450241 
z"/>
<path fill="#2C6975" opacity="1.000000" stroke="none" 
	d="
M137.946243,129.997025 
	C138.230484,130.791977 138.514725,131.586914 138.854309,133.038391 
	C137.975098,134.745117 137.232239,136.358612 136.074371,136.752640 
	C129.332199,139.047012 122.492584,141.055099 115.685883,143.159897 
	C114.579712,141.628754 113.473541,140.097610 112.596603,138.207397 
	C116.710266,136.551132 120.785484,135.641510 124.426262,133.849350 
	C128.178696,132.002228 131.508057,129.295624 135.222382,127.193069 
	C136.263565,128.279724 137.104904,129.138367 137.946243,129.997025 
z"/>
<path fill="#377A75" opacity="1.000000" stroke="none" 
	d="
M93.596565,126.957306 
	C93.660820,130.648071 93.725075,134.338837 93.378479,138.523651 
	C88.656914,141.022110 84.346184,143.026505 80.032310,144.608490 
	C80.335663,141.443359 80.642159,138.700638 80.957664,135.548096 
	C80.998840,133.772278 81.031021,132.406281 81.402817,130.930511 
	C85.693810,129.532928 89.645187,128.245117 93.596565,126.957306 
z"/>
<path fill="#408F95" opacity="1.000000" stroke="none" 
	d="
M164.785522,165.225006 
	C160.859650,165.297714 157.265396,165.286469 153.346436,165.153702 
	C163.321640,161.274628 173.617645,157.506348 183.924606,153.768250 
	C186.108017,152.976364 188.331451,152.294785 190.842316,151.368988 
	C193.964935,151.272522 196.781662,151.369507 199.807220,151.684433 
	C195.219223,153.469528 190.422394,155.036667 184.952606,156.853485 
	C180.069489,158.992828 175.859314,160.882492 171.649139,162.772156 
	C169.471817,163.561783 167.294479,164.351410 164.785522,165.225006 
z"/>
<path fill="#306F75" opacity="1.000000" stroke="none" 
	d="
M185.629791,115.616959 
	C175.027542,116.982468 164.465805,117.988602 153.439301,118.994919 
	C152.921921,117.611351 152.869278,116.227615 153.338776,114.428329 
	C164.197205,113.005219 174.533508,111.997658 184.869812,110.990089 
	C185.136642,112.412582 185.403458,113.835083 185.629791,115.616959 
z"/>
<path fill="#428F83" opacity="1.000000" stroke="none" 
	d="
M81.063202,131.040268 
	C81.031021,132.406281 80.998840,133.772278 80.612953,135.623062 
	C75.239677,138.062714 70.220108,140.017593 65.200546,141.972473 
	C65.161705,139.270844 65.122864,136.569229 65.508446,133.361298 
	C71.282661,130.564453 76.632454,128.273880 81.904922,126.342056 
	C81.572807,128.147278 81.318001,129.593781 81.063202,131.040268 
z"/>
<path fill="#296167" opacity="1.000000" stroke="none" 
	d="
M78.020668,170.056915 
	C75.969788,170.071442 73.918907,170.085953 71.553917,169.744843 
	C72.159477,167.924698 73.079155,166.460220 74.253204,164.773178 
	C76.346367,161.383026 78.185165,158.215408 80.387749,154.984528 
	C85.107452,153.267715 89.463364,151.614182 93.819275,149.960648 
	C93.921516,152.347443 94.023766,154.734222 93.738632,157.657791 
	C90.399002,159.306152 87.516357,160.690582 84.478256,161.465698 
	C79.867104,162.642105 77.694321,165.328415 78.020668,170.056915 
z"/>
<path fill="#56B6A9" opacity="1.000000" stroke="none" 
	d="
M194.543152,64.322800 
	C189.345825,62.069603 185.625000,65.494278 181.665421,67.090263 
	C177.855865,68.625786 174.328278,70.860832 170.312866,72.505226 
	C168.418182,67.033005 171.014023,63.700542 175.000320,60.993618 
	C183.163757,60.993618 191.327179,60.993618 199.490616,60.993618 
	C199.559341,61.452354 199.628052,61.911095 199.696762,62.369831 
	C198.096252,62.981213 196.495743,63.592590 194.543152,64.322800 
z"/>
<path fill="#4CA090" opacity="1.000000" stroke="none" 
	d="
M65.083427,118.409683 
	C72.940887,115.947731 80.713837,113.828209 88.541626,111.935516 
	C90.375549,111.492096 92.395111,111.816498 94.660767,112.188522 
	C94.980659,112.775742 94.969048,112.962082 94.662308,113.249664 
	C93.854546,114.216972 93.341911,115.083038 92.505524,116.015411 
	C90.799362,116.730042 89.416969,117.378365 87.632301,118.051872 
	C79.864601,120.046608 72.499176,122.016174 65.133751,123.985748 
	C65.095474,122.268791 65.057205,120.551826 65.083427,118.409683 
z"/>
<path fill="#479889" opacity="1.000000" stroke="none" 
	d="
M65.087021,124.434135 
	C72.499176,122.016174 79.864601,120.046608 87.437561,118.319046 
	C85.757484,121.035149 83.869865,123.509239 81.982246,125.983330 
	C76.632454,128.273880 71.282661,130.564453 65.582794,132.915634 
	C65.168579,130.278351 65.104431,127.580437 65.087021,124.434135 
z"/>
<path fill="#306D6F" opacity="1.000000" stroke="none" 
	d="
M93.857605,149.505707 
	C89.463364,151.614182 85.107452,153.267715 80.380768,154.600647 
	C80.001968,153.514786 79.993950,152.749557 79.988480,151.557617 
	C79.994370,149.420715 79.997711,147.710510 80.009888,145.757965 
	C80.018715,145.515610 80.035454,145.030899 80.035454,145.030899 
	C84.346184,143.026505 88.656914,141.022110 93.326416,138.979111 
	C93.755447,142.310593 93.825684,145.680679 93.857605,149.505707 
z"/>
<path fill="#27606E" opacity="1.000000" stroke="none" 
	d="
M115.839218,143.463623 
	C122.492584,141.055099 129.332199,139.047012 136.074371,136.752640 
	C137.232239,136.358612 137.975098,134.745117 138.980652,133.329086 
	C142.329865,135.898071 141.661224,138.059265 137.960861,140.088577 
	C132.372375,143.153366 126.927895,146.480743 121.161469,149.934967 
	C119.264664,148.038055 117.628601,145.902710 115.839218,143.463623 
z"/>
<path fill="#205262" opacity="1.000000" stroke="none" 
	d="
M78.450150,170.053284 
	C77.694321,165.328415 79.867104,162.642105 84.478256,161.465698 
	C87.516357,160.690582 90.399002,159.306152 93.718948,158.105194 
	C94.313278,159.451340 94.392548,160.929657 94.794853,162.314117 
	C95.900070,166.117538 94.477951,168.158997 90.320244,168.818604 
	C86.289406,169.313354 82.584511,169.681503 78.450150,170.053284 
z"/>
<path fill="#306F75" opacity="1.000000" stroke="none" 
	d="
M79.985924,151.984314 
	C79.993950,152.749557 80.001968,153.514786 80.016968,154.663910 
	C78.185165,158.215408 76.346367,161.383026 73.835609,164.767914 
	C69.799377,164.323181 66.435104,163.661133 63.070839,162.999084 
	C63.382339,160.908356 63.693840,158.817612 64.542603,156.352127 
	C70.048553,154.646347 75.017242,153.315338 79.985924,151.984314 
z"/>
<path fill="#306F75" opacity="1.000000" stroke="none" 
	d="
M135.022522,126.965073 
	C131.508057,129.295624 128.178696,132.002228 124.426262,133.849350 
	C120.785484,135.641510 116.710266,136.551132 112.471611,137.916901 
	C110.551132,135.846558 108.984879,133.707626 107.651413,131.209473 
	C110.255890,130.234558 112.627586,129.618835 115.272209,129.195435 
	C117.492302,129.968582 119.893784,131.566711 121.300880,130.938293 
	C125.417351,129.099869 129.137512,126.374008 133.254242,123.997017 
	C133.495544,123.998146 133.978134,124.001167 134.100372,124.291702 
	C134.489227,125.376518 134.755875,126.170799 135.022522,126.965073 
z"/>
<path fill="#3D8A93" opacity="1.000000" stroke="none" 
	d="
M184.977783,100.586220 
	C177.812180,100.937477 170.896118,101.075653 164.250839,104.697929 
	C161.335678,106.286949 157.184021,105.607521 153.191956,105.947311 
	C152.691742,105.198830 152.593384,104.461159 152.928467,103.318893 
	C158.239853,101.272949 163.117798,99.631592 168.411530,97.931412 
	C174.194443,97.579071 179.561554,97.285568 184.928665,96.992058 
	C184.963135,98.057671 184.997604,99.123283 184.977783,100.586220 
z"/>
<path fill="#469A9D" opacity="1.000000" stroke="none" 
	d="
M152.233459,93.349030 
	C155.350418,92.504272 158.523788,92.327759 161.500336,91.468979 
	C163.903519,90.775627 165.962723,88.896179 168.364792,88.191315 
	C172.184357,87.070511 176.140533,86.347786 180.082748,85.741562 
	C181.993317,85.447754 184.003296,85.800598 186.336273,85.913765 
	C186.637802,87.028687 186.571350,88.090530 185.958771,89.545959 
	C179.609863,90.967636 173.807068,91.995735 167.608871,93.111145 
	C162.258347,94.119102 157.303238,95.039757 152.348114,95.960411 
	C152.300354,95.214455 152.252609,94.468491 152.233459,93.349030 
z"/>
<path fill="#3C837E" opacity="1.000000" stroke="none" 
	d="
M80.032310,144.608490 
	C80.035454,145.030899 80.018715,145.515610 79.655701,145.860382 
	C74.491005,147.472748 69.689331,148.740341 64.887657,150.007950 
	C64.943497,147.623901 64.999329,145.239868 65.127853,142.414154 
	C70.220108,140.017593 75.239677,138.062714 80.603951,136.032867 
	C80.642159,138.700638 80.335663,141.443359 80.032310,144.608490 
z"/>
<path fill="#52AFAA" opacity="1.000000" stroke="none" 
	d="
M194.678223,165.109833 
	C196.338486,168.800476 199.047241,167.487808 201.601761,166.988647 
	C206.064590,166.116592 210.636032,164.514404 214.445007,168.781174 
	C211.522125,170.107376 208.759796,171.028244 205.615479,171.995560 
	C202.154800,173.064987 199.076080,174.087997 195.997360,175.110992 
	C194.052505,172.600540 192.107651,170.090088 190.075653,167.241913 
	C191.438660,166.308029 192.888794,165.711868 194.678223,165.109833 
z"/>
<path fill="#58BAAE" opacity="1.000000" stroke="none" 
	d="
M174.577866,60.905663 
	C171.014023,63.700542 168.418182,67.033005 169.971619,72.602020 
	C163.963043,74.629112 157.931778,76.276131 151.501755,77.952530 
	C150.751755,76.560631 150.400513,75.139351 150.053314,73.350952 
	C154.126526,72.174377 158.179535,71.269302 162.268906,70.579727 
	C167.379333,69.717972 168.044998,65.711830 168.909851,61.347717 
	C170.716690,60.921734 172.436050,60.869724 174.577866,60.905663 
z"/>
<path fill="#408F95" opacity="1.000000" stroke="none" 
	d="
M168.004272,93.023834 
	C173.807068,91.995735 179.609863,90.967636 185.822205,89.923370 
	C185.872192,92.037445 185.512619,94.167686 185.040863,96.644997 
	C179.561554,97.285568 174.194443,97.579071 168.411926,97.517395 
	C167.999100,95.782745 168.001694,94.403290 168.004272,93.023834 
z"/>
<path fill="#327580" opacity="1.000000" stroke="none" 
	d="
M184.916840,110.590561 
	C174.533508,111.997658 164.197205,113.005219 153.392456,114.015335 
	C152.879242,113.266174 152.834473,112.514458 152.841125,111.389008 
	C158.835648,111.051147 164.504044,110.793312 170.269058,108.186623 
	C174.210114,106.404640 179.358231,107.292175 184.422867,106.984253 
	C184.907318,108.051857 184.935593,109.121452 184.916840,110.590561 
z"/>
<path fill="#439292" opacity="1.000000" stroke="none" 
	d="
M167.608871,93.111145 
	C168.001694,94.403290 167.999100,95.782745 167.996124,97.576218 
	C163.117798,99.631592 158.239853,101.272949 152.996185,102.950287 
	C152.491684,100.935699 152.352921,98.885124 152.281128,96.397484 
	C157.303238,95.039757 162.258347,94.119102 167.608871,93.111145 
z"/>
<path fill="#3C837E" opacity="1.000000" stroke="none" 
	d="
M81.904922,126.342056 
	C83.869865,123.509239 85.757484,121.035149 87.839836,118.293869 
	C89.416969,117.378365 90.799362,116.730042 92.579430,116.448059 
	C93.302162,119.553230 93.627213,122.292038 93.952263,125.030853 
	C93.893929,125.463043 93.835594,125.895241 93.686913,126.642365 
	C89.645187,128.245117 85.693810,129.532928 81.402817,130.930511 
	C81.318001,129.593781 81.572807,128.147278 81.904922,126.342056 
z"/>
<path fill="#4FA799" opacity="1.000000" stroke="none" 
	d="
M101.686615,175.019775 
	C104.205513,177.272293 106.402908,179.522751 108.548355,182.266052 
	C105.949066,184.329178 103.401733,185.899475 100.854401,187.469757 
	C97.839905,187.888428 94.825417,188.307083 91.389069,188.687103 
	C91.813957,187.869965 92.533150,186.801117 93.529594,186.363358 
	C97.771446,184.499802 99.453323,181.296555 98.996780,176.385345 
	C99.784706,175.647568 100.574913,175.332642 101.686615,175.019775 
z"/>
<path fill="#183349" opacity="1.000000" stroke="none" 
	d="
M171.944458,162.983917 
	C175.859314,160.882492 180.069489,158.992828 184.643921,157.055527 
	C185.013321,160.317444 185.018433,163.626999 185.023056,167.383270 
	C183.569122,168.476746 182.115707,169.123535 180.321793,169.807953 
	C177.400803,167.628952 174.820282,165.412323 171.944458,162.983917 
z"/>
<path fill="#377B7A" opacity="1.000000" stroke="none" 
	d="
M64.756973,150.358002 
	C69.689331,148.740341 74.491005,147.472748 79.646866,146.102722 
	C79.997711,147.710510 79.994370,149.420715 79.988480,151.557617 
	C75.017242,153.315338 70.048553,154.646347 64.658165,155.972839 
	C64.366409,154.214905 64.496353,152.461487 64.756973,150.358002 
z"/>
<path fill="#59BCB4" opacity="1.000000" stroke="none" 
	d="
M76.584427,60.939770 
	C71.173355,62.989620 65.379936,64.888130 59.241653,66.909241 
	C56.491882,65.397820 54.086975,63.763786 51.107773,61.739544 
	C59.709602,59.627640 67.911240,59.421600 76.584427,60.939770 
z"/>
<path fill="#163C50" opacity="1.000000" stroke="none" 
	d="
M190.868027,184.776581 
	C193.044998,186.958984 195.221970,189.141388 197.382401,191.307205 
	C194.198898,194.101547 184.586212,193.952087 180.455093,189.870056 
	C183.057678,188.010895 185.595901,186.679413 188.475815,185.276001 
	C189.501022,185.061600 190.184525,184.919083 190.868027,184.776581 
z"/>
<path fill="#3B8488" opacity="1.000000" stroke="none" 
	d="
M130.496063,189.985870 
	C131.902771,191.323410 132.914368,192.696075 134.012329,194.373062 
	C132.375519,194.827042 130.652359,194.976685 128.029800,195.103088 
	C120.763496,195.685547 114.396606,196.291275 108.029709,196.897018 
	C106.806313,196.706863 105.582916,196.516693 104.359512,196.326523 
	C104.357307,196.080780 104.355103,195.835022 104.352898,195.589279 
	C112.935577,193.733185 121.518265,191.877090 130.496063,189.985870 
z"/>
<path fill="#377B7A" opacity="1.000000" stroke="none" 
	d="
M114.999275,129.003113 
	C112.627586,129.618835 110.255890,130.234558 107.526276,130.906586 
	C104.985626,128.109039 102.802910,125.255180 100.394325,121.920563 
	C100.185692,121.269524 100.202919,121.099236 100.648399,120.934784 
	C103.380493,120.962746 105.684326,120.984871 108.205765,121.190475 
	C108.946281,121.921898 109.469200,122.469833 110.176315,123.273811 
	C111.574127,124.687317 112.787735,125.844772 114.126190,127.252266 
	C114.500450,128.002563 114.749863,128.502838 114.999275,129.003113 
z"/>
<path fill="#3B8488" opacity="1.000000" stroke="none" 
	d="
M195.764465,175.300201 
	C199.076080,174.087997 202.154800,173.064987 205.749161,172.296173 
	C206.850708,173.724121 207.436600,174.897888 208.022507,176.071655 
	C203.922012,178.006638 199.821518,179.941620 195.261597,181.641571 
	C194.193817,179.972366 193.585434,178.538193 192.977051,177.104034 
	C193.828552,176.565811 194.680054,176.027603 195.764465,175.300201 
z"/>
<path fill="#408F95" opacity="1.000000" stroke="none" 
	d="
M208.402100,176.017136 
	C207.436600,174.897888 206.850708,173.724121 206.131134,172.249741 
	C208.759796,171.028244 211.522125,170.107376 214.645538,169.079163 
	C217.351120,168.755554 219.695633,168.539291 222.464417,168.625336 
	C222.943146,169.872665 222.997604,170.817657 223.052063,171.762665 
	C218.295258,173.162659 213.538483,174.562637 208.402100,176.017136 
z"/>
<path fill="#2C6975" opacity="1.000000" stroke="none" 
	d="
M188.134109,185.347916 
	C185.595901,186.679413 183.057678,188.010895 180.270844,189.546936 
	C179.303314,189.898666 178.584412,190.045853 177.503510,190.244354 
	C176.166473,188.716293 175.191467,187.136932 174.100616,185.233521 
	C177.393738,183.591934 180.802719,182.274384 184.759979,181.153824 
	C186.250229,182.683182 187.192169,184.015549 188.134109,185.347916 
z"/>
<path fill="#4CA090" opacity="1.000000" stroke="none" 
	d="
M113.055405,93.976746 
	C112.881157,93.978722 112.706917,93.980705 112.271408,93.985001 
	C110.843254,92.454712 109.676353,90.922104 108.268845,89.176620 
	C105.902672,86.110558 105.392395,83.052162 106.923508,79.409721 
	C110.052948,82.773376 113.115608,86.470200 116.043320,90.663116 
	C114.957382,92.098381 114.006393,93.037567 113.055405,93.976746 
z"/>
<path fill="#52AFAA" opacity="1.000000" stroke="none" 
	d="
M221.239838,151.031830 
	C224.072021,150.851669 227.177887,150.618378 230.229080,150.926544 
	C232.112717,151.116760 233.913040,152.131851 236.152527,152.817261 
	C238.828644,155.360687 241.102997,157.863480 243.519867,160.523087 
	C235.839005,157.275009 228.664719,154.241150 221.239838,151.031830 
z"/>
<path fill="#306F75" opacity="1.000000" stroke="none" 
	d="
M108.354912,197.100922 
	C114.396606,196.291275 120.763496,195.685547 127.599930,195.118301 
	C127.762909,196.208923 127.456352,197.261063 127.064804,198.633270 
	C120.879906,198.403809 114.780006,197.854324 108.354912,197.100922 
z"/>
<path fill="#3C837E" opacity="1.000000" stroke="none" 
	d="
M117.800224,100.980537 
	C117.800224,100.980537 117.839661,100.535110 118.036697,99.980133 
	C119.060448,98.496750 119.887161,97.568359 120.713867,96.639969 
	C122.774765,99.472137 124.835655,102.304314 126.889328,105.772888 
	C126.238876,107.616714 125.595642,108.824135 124.715385,109.895554 
	C124.003471,109.486305 123.528580,109.213066 122.901001,108.645226 
	C121.536865,106.546288 120.325401,104.741943 118.961372,102.686577 
	C118.472618,101.950539 118.136421,101.465538 117.800224,100.980537 
z"/>
<path fill="#306D6F" opacity="1.000000" stroke="none" 
	d="
M62.925392,163.320404 
	C66.435104,163.661133 69.799377,164.323181 73.581238,164.990479 
	C73.079155,166.460220 72.159477,167.924698 71.117325,169.690063 
	C69.280449,170.008194 67.566071,170.025467 65.422745,170.052383 
	C59.554047,169.543213 62.131325,166.259933 62.925392,163.320404 
z"/>
<path fill="#4BA4A1" opacity="1.000000" stroke="none" 
	d="
M223.497772,171.799072 
	C222.997604,170.817657 222.943146,169.872665 222.846527,168.581177 
	C228.606964,168.814255 234.409561,169.393814 240.654327,169.889343 
	C241.096512,169.805298 241.184967,169.818283 240.978333,170.342468 
	C240.526810,171.860580 240.281921,172.854523 240.037033,173.848465 
	C234.672516,173.177475 229.307999,172.506485 223.497772,171.799072 
z"/>
<path fill="#3B8488" opacity="1.000000" stroke="none" 
	d="
M101.266800,187.508972 
	C103.401733,185.899475 105.949066,184.329178 108.737091,182.564804 
	C111.078728,181.699875 113.179665,181.029022 115.621651,180.257935 
	C115.979408,181.440796 115.996124,182.723907 116.013924,184.394730 
	C111.236404,185.704361 106.457802,186.626266 101.266800,187.508972 
z"/>
<path fill="#306D6F" opacity="1.000000" stroke="none" 
	d="
M133.978134,124.001167 
	C133.978134,124.001167 133.495544,123.998146 133.102631,123.733208 
	C132.117920,122.649521 131.526108,121.830772 130.832947,120.700081 
	C129.794769,118.926483 128.857971,117.464828 127.887634,115.671402 
	C127.794212,114.898163 127.734337,114.456680 127.969574,113.845718 
	C129.238205,113.086487 130.211746,112.496727 131.185287,111.906967 
	C133.189362,114.657799 135.193451,117.408623 137.044388,120.661362 
	C135.920212,122.109245 134.949173,123.055206 133.978134,124.001167 
z"/>
<path fill="#327580" opacity="1.000000" stroke="none" 
	d="
M188.475815,185.276001 
	C187.192169,184.015549 186.250229,182.683182 185.121155,181.056137 
	C187.388611,179.593384 189.843185,178.425308 192.637421,177.180634 
	C193.585434,178.538193 194.193817,179.972366 194.910309,181.725647 
	C193.801025,182.830688 192.583603,183.616653 191.117096,184.589600 
	C190.184525,184.919083 189.501022,185.061600 188.475815,185.276001 
z"/>
<path fill="#132A3E" opacity="1.000000" stroke="none" 
	d="
M100.220146,120.928955 
	C100.202919,121.099236 100.185692,121.269524 100.151245,121.695953 
	C98.220932,122.796165 96.307831,123.640228 94.173492,124.757568 
	C93.627213,122.292038 93.302162,119.553230 92.903198,116.381760 
	C93.341911,115.083038 93.854546,114.216972 94.702667,113.588493 
	C96.765488,116.193710 98.492813,118.561333 100.220146,120.928955 
z"/>
<path fill="#296167" opacity="1.000000" stroke="none" 
	d="
M134.100372,124.291702 
	C134.949173,123.055206 135.920212,122.109245 137.197113,120.979256 
	C138.520599,122.399734 139.538239,124.004242 140.735443,125.892532 
	C140.094666,127.325348 139.274323,128.474380 138.200104,129.810211 
	C137.104904,129.138367 136.263565,128.279724 135.222382,127.193069 
	C134.755875,126.170799 134.489227,125.376518 134.100372,124.291702 
z"/>
<path fill="#428F83" opacity="1.000000" stroke="none" 
	d="
M120.576309,96.330963 
	C119.887161,97.568359 119.060448,98.496750 118.061172,99.757889 
	C116.396545,98.235222 114.904472,96.379814 113.233902,94.250580 
	C114.006393,93.037567 114.957382,92.098381 116.198105,90.977974 
	C117.804794,92.538483 119.121765,94.280220 120.576309,96.330963 
z"/>
<path fill="#377A75" opacity="1.000000" stroke="none" 
	d="
M131.064133,111.589188 
	C130.211746,112.496727 129.238205,113.086487 127.747665,113.659721 
	C126.471237,112.439316 125.711823,111.235435 124.952408,110.031555 
	C125.595642,108.824135 126.238876,107.616714 127.007690,106.087097 
	C128.403168,107.600403 129.673080,109.435913 131.064133,111.589188 
z"/>
<path fill="#4BA4A1" opacity="1.000000" stroke="none" 
	d="
M244.104340,172.533752 
	C245.633453,174.185226 247.162552,175.836700 248.691666,177.488190 
	C248.405716,177.874466 248.119781,178.260742 247.833847,178.647034 
	C246.613449,177.828903 245.393036,177.010773 244.045563,175.438324 
	C243.980438,173.967270 244.042389,173.250519 244.104340,172.533752 
z"/>
<path fill="#56B6A9" opacity="1.000000" stroke="none" 
	d="
M243.932465,172.294983 
	C244.042389,173.250519 243.980438,173.967270 243.862976,175.221008 
	C242.743896,175.256241 241.680344,174.754532 240.326904,174.050644 
	C240.281921,172.854523 240.526810,171.860580 240.971283,170.386597 
	C242.034088,170.623108 242.897324,171.339661 243.932465,172.294983 
z"/>
<path fill="#52AFAA" opacity="1.000000" stroke="none" 
	d="
M202.587891,151.576508 
	C203.651382,151.139832 205.124252,150.742645 206.805542,150.576416 
	C205.675079,151.076920 204.336166,151.346451 202.587891,151.576508 
z"/>
<path fill="#469A9D" opacity="1.000000" stroke="none" 
	d="
M161.506897,188.453156 
	C159.279465,187.415863 157.498734,186.125580 155.546539,185.194992 
	C153.981369,184.448883 152.208115,184.139252 150.280884,183.383606 
	C152.139038,182.221619 154.243530,181.311966 156.684494,180.354538 
	C158.610992,181.206665 160.142303,182.239609 161.805573,182.973480 
	C163.990891,183.937698 166.280106,184.666428 168.770386,185.760376 
	C166.637253,186.801361 164.258408,187.578415 161.506897,188.453156 
z"/>
<path fill="#183349" opacity="1.000000" stroke="none" 
	d="
M159.115784,168.830780 
	C159.986191,168.102097 161.124634,167.481705 162.582520,166.790466 
	C161.729218,167.459427 160.556519,168.199234 159.115784,168.830780 
z"/>
<path fill="#4BA097" opacity="1.000000" stroke="none" 
	d="
M117.448593,101.044952 
	C118.136421,101.465538 118.472618,101.950539 118.870148,103.037529 
	C115.122391,110.902176 107.810608,111.538429 100.634125,113.060402 
	C98.838219,112.638519 97.406204,112.275307 95.974190,111.912094 
	C98.706955,109.960243 101.246086,107.614883 104.219353,106.151787 
	C108.340950,104.123611 112.788795,102.758423 117.448593,101.044952 
z"/>
<path fill="#428F83" opacity="1.000000" stroke="none" 
	d="
M95.740257,111.943047 
	C97.406204,112.275307 98.838219,112.638519 100.830200,113.309097 
	C103.261642,115.407997 105.133133,117.199539 107.127853,119.242920 
	C107.496788,119.998840 107.742477,120.502914 107.988167,121.006996 
	C105.684326,120.984871 103.380493,120.962746 100.648399,120.934784 
	C98.492813,118.561333 96.765488,116.193710 94.997803,113.487259 
	C94.969048,112.962082 94.980659,112.775742 95.015099,112.310555 
	C95.037926,112.031715 95.506325,111.973999 95.740257,111.943047 
z"/>
<path fill="#377D86" opacity="1.000000" stroke="none" 
	d="
M130.934311,121.012024 
	C131.526108,121.830772 132.117920,122.649521 132.861343,123.732079 
	C129.137512,126.374008 125.417351,129.099869 121.300880,130.938293 
	C119.893784,131.566711 117.492302,129.968582 115.272209,129.195435 
	C114.749863,128.502838 114.500450,128.002563 114.505096,127.196205 
	C120.150871,124.930748 125.542595,122.971390 130.934311,121.012024 
z"/>
<path fill="#408D8D" opacity="1.000000" stroke="none" 
	d="
M108.205765,121.190475 
	C107.742477,120.502914 107.496788,119.998840 107.443260,119.088821 
	C112.774841,115.435196 117.914253,112.187500 123.053680,108.939819 
	C123.528580,109.213066 124.003471,109.486305 124.715393,109.895554 
	C125.711823,111.235435 126.471237,112.439316 127.452560,113.829193 
	C127.734337,114.456680 127.794212,114.898163 127.566437,115.792358 
	C121.516563,118.502640 115.754341,120.760208 109.992111,123.017769 
	C109.469200,122.469833 108.946281,121.921898 108.205765,121.190475 
z"/>
<path fill="#3B8488" opacity="1.000000" stroke="none" 
	d="
M110.176315,123.273811 
	C115.754341,120.760208 121.516563,118.502640 127.599983,116.124123 
	C128.857971,117.464828 129.794769,118.926483 130.832947,120.700081 
	C125.542595,122.971390 120.150871,124.930748 114.380249,126.946175 
	C112.787735,125.844772 111.574127,124.687317 110.176315,123.273811 
z"/>
<path fill="#439292" opacity="1.000000" stroke="none" 
	d="
M122.901001,108.645218 
	C117.914253,112.187500 112.774841,115.435196 107.320023,118.836990 
	C105.133133,117.199539 103.261642,115.407997 101.194092,113.367767 
	C107.810608,111.538429 115.122391,110.902176 119.022705,103.288559 
	C120.325401,104.741943 121.536865,106.546288 122.901001,108.645218 
z"/>
</svg>